<?xml version="1.0" encoding="utf-8"?>
<!-- Generator: Adobe Illustrator 23.0.4, SVG Export Plug-In . SVG Version: 6.00 Build 0)  -->
<svg version="1.1" xmlns="http://www.w3.org/2000/svg" xmlns:xlink="http://www.w3.org/1999/xlink" x="0px" y="0px"
	 viewBox="0 0 194 213" enable-background="new 0 0 194 213" xml:space="preserve">
<g id="Layer_10">
</g>
<g id="Layer_9">
</g>
<g id="Layer_8">
</g>
<g id="Layer_7">
</g>
<g id="Layer_6">
</g>
<g id="Layer_5">
</g>
<g id="Layer_4">
</g>
<g id="Layer_3">
</g>
<g id="Layer_2">
</g>
<g id="Слой_1">
	<g id="Layer_11">
		<g>
			<path fill="#EF3E58" d="M162.8,108.7h-6.4c-0.2,0-0.4,0.2-0.4,0.4v20.3c-1.4,0.4-2.8,0.6-4.4,0.6c-4.2,0-5.2-1.3-5.2-6.9v-14
				c0-0.2-0.2-0.4-0.4-0.4h-6.4c-0.2,0-0.4,0.2-0.4,0.4v14.7c0,9.2,3.1,12.7,11,12.7c4.5,0,9.6-1.2,12.6-2.3
				c0.1-0.1,0.2-0.2,0.2-0.3v-24.8C163.2,108.9,163,108.7,162.8,108.7z"/>
			<path fill="#EF3E58" d="M27.2,108.8h-6.5c-0.2,0-0.3,0.1-0.3,0.3c-1,4-3.1,10.8-5.9,17.9L8,109c-0.1-0.1-0.2-0.2-0.3-0.2H1.1
				c-0.1,0-0.2,0.1-0.3,0.2c-0.1,0.1-0.1,0.2,0,0.3l9.8,26.8c-1,2.1-1.9,3.8-2.8,5.4c-0.7,1.2-1.3,2.4-1.9,3.7
				c-0.1,0.1-0.1,0.2,0,0.3c0.1,0.1,0.2,0.2,0.3,0.2h7.1c0.1,0,0.3-0.1,0.3-0.2c1.2-2.3,2.7-5.5,4.1-8.8c4.2-9.8,7.5-19,10-27.4
				c0-0.1,0-0.2-0.1-0.3C27.4,108.8,27.3,108.8,27.2,108.8z"/>
			<path fill="#EF3E58" d="M50.5,129.4c0-0.1-0.1-0.2-0.2-0.2c-0.1,0-0.2,0-0.3,0c-1.6,0.6-4.5,1-6.5,1c-4.5,0-6.6-1.2-6.6-8
				c0-5.5,0.7-8,6.6-8c1.7,0,3.2,0.2,5.2,0.8c0.2,0,0.3,0,0.4-0.2c0.7-1.4,1.6-3.1,2.6-5.2c0-0.1,0-0.2,0-0.3c0-0.1-0.1-0.2-0.2-0.2
				c-2.6-0.8-5.7-1.3-8.5-1.3c-9.3,0-13.5,4.4-13.5,14.3c0,10,4.2,14.5,13.5,14.5c2.3,0,7-0.5,9.2-1.4c0.2-0.1,0.3-0.3,0.2-0.5
				L50.5,129.4z"/>
			<path fill="#EF3E58" d="M111.4,108.8h-6.5c-0.2,0-0.3,0.1-0.3,0.3c-1,4.1-3.1,10.8-5.9,17.9L92.2,109c-0.1-0.1-0.2-0.2-0.3-0.2
				h-6.6c-0.1,0-0.2,0.1-0.3,0.2c-0.1,0.1-0.1,0.2,0,0.3l9.8,26.8c-1,2.1-1.9,3.8-2.8,5.4c-0.7,1.2-1.3,2.4-1.9,3.7
				c-0.1,0.1-0.1,0.2,0,0.3c0.1,0.1,0.2,0.2,0.3,0.2h7.1c0.1,0,0.3-0.1,0.3-0.2c1.2-2.3,2.7-5.5,4.1-8.8c4.1-9.8,7.5-19,10-27.4
				c0-0.1,0-0.2-0.1-0.3C111.6,108.8,111.5,108.8,111.4,108.8z"/>
			<path fill="#EF3E58" d="M135.4,108.7h-18.9c-0.2,0-0.4,0.2-0.4,0.4v26.3c0,0.2,0.2,0.4,0.4,0.4h6.4c0.2,0,0.4-0.2,0.4-0.4V115
				h9.9c0.1,0,0.3-0.1,0.3-0.2c0.8-1.8,1.5-3.7,2.3-5.6c0-0.1,0-0.2,0-0.3C135.6,108.8,135.5,108.7,135.4,108.7z"/>
			<path fill="#0F67B1" d="M34.8,68.3c-9.2,0-12.8,4-12.8,14.1c0,10.3,3.6,14.3,12.8,14.3c9.3,0,12.9-4,12.9-14.3
				C47.7,72.3,44.1,68.3,34.8,68.3z M34.8,90.9c-4.2,0-5.5-1.1-5.5-8.3c0-7.6,1.4-8.3,5.5-8.3c4.2,0,5.6,0.7,5.6,8.3
				C40.4,89.7,39.1,90.9,34.8,90.9z"/>
			<path fill="#0F67B1" d="M73.3,89.8c0-0.1-0.1-0.2-0.2-0.2c-0.1,0-0.2,0-0.3,0c-1.6,0.6-4.5,1-6.5,1c-4.5,0-6.6-1.2-6.6-8
				c0-5.5,0.6-8,6.6-8c1.7,0,3.2,0.2,5.2,0.8c0.2,0,0.3,0,0.4-0.2c0.7-1.4,1.6-3.1,2.6-5.2c0-0.1,0-0.2,0-0.3c0-0.1-0.1-0.2-0.2-0.2
				c-2.6-0.8-5.7-1.3-8.5-1.3c-9.3,0-13.5,4.4-13.5,14.3c0,10,4.2,14.5,13.5,14.5c2.3,0,7-0.5,9.2-1.4c0.2-0.1,0.3-0.3,0.2-0.5
				L73.3,89.8z"/>
			<path fill="#0F67B1" d="M1.1,69.1c-0.2,0-0.4,0.2-0.4,0.4v26.3c0,0.2,0.2,0.4,0.4,0.4h6.4c0.2,0,0.4-0.2,0.4-0.4V75.4h9.9
				c0.1,0,0.3-0.1,0.3-0.2c0.8-1.8,1.5-3.7,2.3-5.6c0-0.1,0-0.2,0-0.3c-0.1-0.1-0.2-0.2-0.3-0.2H1.1z"/>
			
				<linearGradient id="SVGID_1_" gradientUnits="userSpaceOnUse" x1="100.5167" y1="213.0138" x2="100.5167" y2="0.9307" gradientTransform="matrix(1 0 0 -1 0 213.8898)">
				<stop  offset="0.3979" style="stop-color:#1466AC"/>
				<stop  offset="0.6586" style="stop-color:#EF4058"/>
			</linearGradient>
			<path fill-rule="evenodd" clip-rule="evenodd" fill="url(#SVGID_1_)" d="M192.7,133c0-0.1,0-0.3,0-0.4c0-0.2,0-0.5,0.1-0.7
				c0.3-3.7,0.5-8.2,0.7-13.4c0-0.1,0-0.3,0-0.4c0.1-3.5,0.2-7.3,0.2-11.2c0-3.9-0.1-7.7-0.2-11.2c0-0.1,0-0.3,0-0.4
				c-0.2-5.1-0.4-9.7-0.7-13.4c0-0.2,0-0.5-0.1-0.7c0-0.1,0-0.3,0-0.4c0-0.4-0.1-0.7-0.1-1.1c0-0.2,0-0.3,0-0.4
				c-0.3-3.9-0.5-6.3-0.6-6.5c0-0.4-0.1-0.8-0.1-1.1c0-0.1,0-0.2,0-0.3c-0.1-0.7-0.2-1.3-0.4-2c0-0.1,0-0.2-0.1-0.3
				c-1.7-8.1-6.2-17-11.8-23.7c-2.2-2.6-4.5-4.9-6.9-6.7c-0.2-0.2-3-2.2-7.4-5.3c-5.1-3.5-12.4-8.4-20.7-13.2
				c-14.7-8.7-27.9-14.7-29.6-15.5c0,0,0,0,0,0c0,0,0,0,0,0c-0.1,0-0.1-0.1-0.1-0.1l0,0c0,0,0,0,0,0c-3.9-1.7-8.6-2.9-13.7-3.4
				c-1-0.1-2-0.2-3-0.2c-0.9,0-1.8-0.1-2.7-0.1c-0.5,0-0.9,0-1.4,0C87.2,1,80.9,2.3,75.9,4.6c0,0,0,0,0,0
				C75.1,4.9,61.8,11,46.7,19.8h0c-0.2,0.1-0.4,0.2-0.6,0.3C30.7,29.3,18.5,38.3,18,38.7c-3.8,2.8-7.2,6.4-10.3,11
				C7,50.8,7,53.4,10,53.4h7.7c3.3,0,4.1-2,7.8-4.7c4.1-3,12.2-9,27-17.8C63.2,24.6,73.2,19.7,78,17.4c0,0,0,0,0,0
				c0.1,0,0.2-0.1,0.3-0.1c0,0,0.1,0,0.1-0.1c0,0,0.1,0,0.1-0.1c0.1,0,0.2-0.1,0.2-0.1c0,0,0,0,0,0c0.1,0,0.2-0.1,0.3-0.1
				c0,0,0,0,0,0c1.2-0.6,2-0.9,2-0.9c3.4-1.5,8.2-2.5,13.3-2.6c0.3,0,0.7,0,1,0c0.3,0,0.7,0,1,0c1.5,0,3,0.1,4.4,0.3
				c3.1,0.4,5.9,1,8.2,2c0.2,0.1,0.5,0.2,0.7,0.3c0,0,0.1,0.1,0.4,0.2c2.3,1,14.7,6.9,28.2,14.8c8,4.7,15.1,9.4,20,12.8
				c4.3,3,6.9,4.9,7,5c1.9,1.4,3.8,3.4,5.6,5.6c4.5,5.8,8.2,13.7,8.8,19.8c0,0.1,0.3,2.5,0.6,6.6c0,0.3,0,0.5,0.1,0.8
				c0,0.2,0,0.4,0,0.6c0,0.4,0.1,0.7,0.1,1.1c0,0.1,0,0.3,0,0.4c0,0.2,0,0.5,0.1,0.7c0,0.5,0.1,1,0.1,1.5c0,0.3,0,0.6,0.1,0.9
				c0,0.1,0,0.2,0,0.2c0,0.4,0,0.7,0.1,1.1c0,0.3,0,0.5,0,0.8c0.3,5.2,0.5,11.4,0.5,17.9s-0.2,12.7-0.5,17.9c0,0.3,0,0.5,0,0.8
				c0,0.4,0,0.7-0.1,1.1c0,0.1,0,0.2,0,0.2c0,0.3,0,0.6-0.1,0.9c0,0.5-0.1,1-0.1,1.5c0,0.3,0,0.5-0.1,0.7c0,0.1,0,0.3,0,0.4
				c0,0.4-0.1,0.7-0.1,1.1c0,0.2,0,0.4,0,0.6c0,0.3,0,0.6-0.1,0.8c-0.3,4.1-0.6,6.6-0.6,6.6c-0.6,6.1-4.3,14-8.8,19.8
				c-1.8,2.3-3.7,4.2-5.6,5.6c-0.1,0-2.7,2-7,5c-4.9,3.4-12.1,8.1-20,12.8c-13.5,8-26,13.8-28.2,14.8c-0.2,0.1-0.4,0.2-0.4,0.2
				c-0.2,0.1-0.5,0.2-0.7,0.3c-2.3,0.9-5.1,1.6-8.2,2c-1.4,0.2-2.9,0.3-4.4,0.3c-0.3,0-0.7,0-1,0s-0.7,0-1,0
				c-5.1-0.1-9.9-1-13.3-2.6c0,0-0.7-0.3-2-0.9c0,0,0,0,0,0c-0.1-0.1-0.3-0.1-0.4-0.2c0,0,0,0,0,0c-0.1-0.1-0.2-0.1-0.3-0.2
				c-0.1,0-0.1-0.1-0.2-0.1c-0.1,0-0.2-0.1-0.3-0.1c-0.1-0.1-0.2-0.1-0.4-0.2c0,0-0.1,0-0.1,0c-5.1-2.4-14.7-7.2-24.9-13.2
				c-14.9-8.7-22.9-14.8-27-17.8c-3.7-2.7-4.5-4.7-7.8-4.7H10c-3,0-3,2.6-2.3,3.6c3.1,4.6,6.5,8.2,10.3,11
				c0.5,0.4,12.7,9.4,28.1,18.5c0.8,0.5,1.6,1,2.5,1.4h0c14.3,8.2,26.6,13.8,27.3,14.2c0,0,0,0,0,0c4.9,2.2,11.3,3.5,18.1,3.7
				c0.4,0,0.9,0,1.4,0c0.9,0,1.8,0,2.7-0.1c1,0,2-0.1,3-0.2c5.1-0.5,9.9-1.7,13.7-3.4c0,0,0,0,0,0l0,0c0,0,0.1,0,0.1-0.1
				c0,0,0,0,0,0c0,0,0,0,0,0c1.7-0.8,14.9-6.9,29.6-15.5c8.3-4.9,15.6-9.7,20.7-13.2c4.4-3.1,7.2-5.1,7.4-5.3
				c2.4-1.8,4.7-4.1,6.9-6.7c5.6-6.7,10.1-15.6,11.8-23.7c0-0.1,0-0.2,0.1-0.3c0.1-0.7,0.3-1.4,0.4-2c0-0.1,0-0.2,0-0.3
				c0.1-0.4,0.1-0.8,0.1-1.1c0-0.2,0.3-2.6,0.6-6.5c0-0.1,0-0.3,0-0.4C192.7,133.7,192.7,133.3,192.7,133"/>
			<path fill="#EF3E58" d="M79.9,108.7H60.3c-0.2,0-0.3,0.1-0.4,0.3c-0.5,8.9-2.2,18.4-4.6,26.2c0,0.1,0,0.2,0.1,0.3
				c0.1,0.1,0.2,0.1,0.3,0.1h6.7c0.2,0,0.3-0.1,0.3-0.2c1.9-6,3.4-13.8,4-20.4h6.4v20.3c0,0.2,0.2,0.4,0.4,0.4h6.4
				c0.2,0,0.4-0.2,0.4-0.4v-26.3C80.3,108.9,80.1,108.7,79.9,108.7z"/>
		</g>
	</g>
</g>
</svg>
