<?xml version="1.0" encoding="utf-8"?>
<!-- Generator: Adobe Illustrator 23.0.4, SVG Export Plug-In . SVG Version: 6.00 Build 0)  -->
<svg version="1.1" id="Layer_1" xmlns="http://www.w3.org/2000/svg" xmlns:xlink="http://www.w3.org/1999/xlink" x="0px" y="0px"
	 viewBox="0 0 196.7 212.1" enable-background="new 0 0 196.7 212.1" xml:space="preserve">
<path fill-rule="evenodd" clip-rule="evenodd" fill="#1D67AD" d="M196.5,94.9c0-0.1,0-0.3,0-0.4c-0.2-5.1-0.4-9.7-0.7-13.4
	c0-0.2,0-0.5,0-0.7c0-0.1,0-0.3,0-0.4c0-0.4-0.1-0.7-0.1-1.1c0-0.2,0-0.3,0-0.4c-0.3-3.9-0.5-6.3-0.6-6.5c0-0.4-0.1-0.8-0.1-1.1
	c0-0.1,0-0.2,0-0.3c-0.1-0.7-0.2-1.3-0.4-2c0-0.1,0-0.2-0.1-0.3c-1.3-6.2-4.3-13-8.2-18.8c-0.1-0.2-0.2-0.4-0.3-0.6
	c-3.1-4.6-6.5-8.2-10.3-11c-0.5-0.4-12.7-9.4-28.1-18.5c-0.2-0.1-0.4-0.2-0.6-0.3h0C131.9,10.1,118.6,4,117.8,3.7c0,0,0,0,0,0
	c-0.9-0.4-1.9-0.8-2.9-1.1c-0.1,0-0.2-0.1-0.3-0.1c-0.5-0.2-0.9-0.3-1.4-0.4c-0.1,0-0.2-0.1-0.4-0.1c-1.5-0.4-3-0.8-4.6-1.1
	c-0.2,0-0.3-0.1-0.5-0.1c-0.5-0.1-0.9-0.1-1.4-0.2c-0.3,0-0.5-0.1-0.8-0.1c-0.4-0.1-0.9-0.1-1.3-0.1c-0.1,0-0.1,0-0.2,0
	c-0.1,0-0.2,0-0.4,0c-0.7-0.1-1.4-0.1-2.2-0.2c-0.1,0-0.3,0-0.4,0c-0.2,0-0.4,0-0.6,0c-0.2,0-0.5,0-0.7,0c-0.5,0-0.9,0-1.4,0
	c0,0,0,0,0,0s0,0,0,0c-0.5,0-0.9,0-1.4,0c-0.2,0-0.5,0-0.7,0c-0.2,0-0.4,0-0.6,0c-0.1,0-0.3,0-0.4,0c-0.7,0-1.4,0.1-2.2,0.2
	c-0.1,0-0.2,0-0.4,0c-0.1,0-0.1,0-0.2,0c-0.4,0-0.9,0.1-1.3,0.1c-0.3,0-0.5,0.1-0.8,0.1C90,0.6,89.5,0.7,89,0.8
	c-0.2,0-0.3,0.1-0.5,0.1c-1.6,0.3-3.2,0.6-4.6,1.1c-0.1,0-0.2,0.1-0.4,0.1c-0.5,0.1-0.9,0.3-1.4,0.4c-0.1,0-0.2,0.1-0.3,0.1
	c-1,0.3-2,0.7-2.9,1.1c0,0,0,0,0,0C78.1,4,64.8,10.1,49.6,19h0c-0.2,0.1-0.4,0.2-0.6,0.3C33.6,28.4,21.5,37.4,21,37.8
	c-3.8,2.8-7.2,6.4-10.3,11c-0.1,0.2-0.2,0.3-0.3,0.6C6.6,55.3,3.6,62,2.3,68.2c0,0.1,0,0.2-0.1,0.3c-0.1,0.7-0.3,1.4-0.4,2
	c0,0.1,0,0.2,0,0.3c-0.1,0.4-0.1,0.8-0.1,1.1c0,0.2-0.3,2.6-0.6,6.5c0,0.1,0,0.3,0,0.4C1,79.3,1,79.6,1,80c0,0.1,0,0.3,0,0.4
	c0,0.2,0,0.5,0,0.7c-0.3,3.7-0.5,8.2-0.7,13.4c0,0.1,0,0.3,0,0.4C0.1,98.4,0,102.1,0,106s0.1,7.7,0.2,11.2c0,0.1,0,0.3,0,0.4
	c0.2,5.1,0.4,9.7,0.7,13.4c0,0.2,0,0.5,0,0.7c0,0.1,0,0.3,0,0.4c0,0.4,0.1,0.7,0.1,1.1c0,0.2,0,0.3,0,0.4c0.3,3.9,0.5,6.3,0.6,6.5
	c0,0.4,0.1,0.8,0.1,1.1c0,0.1,0,0.2,0,0.3c0.1,0.7,0.2,1.3,0.4,2c0,0.1,0,0.2,0.1,0.3c1.3,6.2,4.3,13,8.2,18.8
	c0.1,0.2,0.1,0.4,0.2,0.5c3.1,4.6,6.5,8.2,10.3,11c0.5,0.4,12.7,9.4,28.1,18.5c0.8,0.5,1.6,1,2.5,1.4h0
	c14.3,8.2,26.6,13.8,27.3,14.2c0,0,0,0,0,0c0.9,0.4,1.9,0.8,2.9,1.1c0.1,0,0.3,0.1,0.4,0.1c0.4,0.1,0.9,0.3,1.3,0.4
	c0.1,0,0.3,0.1,0.4,0.1c1.5,0.4,3,0.8,4.6,1c0.2,0,0.4,0.1,0.5,0.1c0.5,0.1,0.9,0.1,1.4,0.2c0.3,0,0.5,0.1,0.8,0.1
	c0.4,0.1,0.9,0.1,1.3,0.2c0.1,0,0.1,0,0.2,0c0.1,0,0.2,0,0.3,0c0.7,0.1,1.5,0.1,2.2,0.2c0.1,0,0.3,0,0.4,0c0.2,0,0.4,0,0.6,0
	c0.2,0,0.5,0,0.7,0c0.5,0,0.9,0,1.4,0c0,0,0,0,0,0s0,0,0,0c0.5,0,0.9,0,1.4,0c0.2,0,0.5,0,0.7,0c0.2,0,0.4,0,0.6,0
	c0.1,0,0.3,0,0.4,0c0.7,0,1.5-0.1,2.2-0.2c0.1,0,0.2,0,0.3,0c0.1,0,0.1,0,0.2,0c0.4,0,0.9-0.1,1.3-0.2c0.3,0,0.5-0.1,0.8-0.1
	c0.5-0.1,0.9-0.1,1.4-0.2c0.2,0,0.4-0.1,0.5-0.1c1.6-0.3,3.1-0.6,4.6-1c0.1,0,0.3-0.1,0.4-0.1c0.5-0.1,0.9-0.3,1.3-0.4
	c0.1,0,0.3-0.1,0.4-0.1c1-0.3,2-0.7,2.9-1.1c0,0,0,0,0,0c0.8-0.3,13-5.9,27.3-14.2h0c0.8-0.5,1.6-0.9,2.5-1.4
	c15.5-9.1,27.6-18.1,28.1-18.5c3.8-2.8,7.2-6.4,10.3-11c0.1-0.2,0.2-0.3,0.2-0.5c3.9-5.8,6.9-12.5,8.2-18.8c0-0.1,0-0.2,0.1-0.3
	c0.1-0.7,0.3-1.4,0.4-2c0-0.1,0-0.2,0-0.3c0.1-0.4,0.1-0.8,0.1-1.1c0-0.2,0.3-2.6,0.6-6.5c0-0.1,0-0.3,0-0.4c0-0.4,0.1-0.7,0.1-1.1
	c0-0.1,0-0.3,0-0.4c0-0.2,0-0.5,0-0.7c0.3-3.7,0.5-8.2,0.7-13.4c0-0.1,0-0.3,0-0.4c0.1-3.5,0.2-7.3,0.2-11.2S196.6,98.4,196.5,94.9z
	"/>
</svg>
